<svg width="32" height="32" viewBox="0 0 32 32" fill="none" xmlns="http://www.w3.org/2000/svg">
<path d="M5.36569 9.36569C5.51572 9.51572 5.6 9.7192 5.6 9.93137V31.2C5.6 31.6418 5.24183 32 4.8 32H0.8C0.358172 32 0 31.6418 0 31.2V5.93137C0 5.21865 0.861714 4.86171 1.36569 5.36569L5.36569 9.36569Z" fill="white"/>
<path d="M26.6343 30.6343C27.1383 31.1383 26.7814 32 26.0686 32H12C11.5582 32 11.2 31.6418 11.2 31.2V17.1314C11.2 16.4186 12.0617 16.0617 12.5657 16.5657L26.6343 30.6343Z" fill="white"/>
<path d="M20 0C20.4418 0 20.8 0.358172 20.8 0.8V14.9483C20.8 15.661 19.9383 16.018 19.4343 15.514L5.286 1.36568C4.78203 0.861713 5.13896 0 5.85168 0H20Z" fill="white"/>
<path d="M32 26.1483C32 26.861 31.1383 27.218 30.6343 26.714L26.6343 22.714C26.4843 22.564 26.4 22.3605 26.4 22.1483V0.8C26.4 0.358172 26.7582 0 27.2 0H31.2C31.6418 0 32 0.358172 32 0.8V26.1483Z" fill="white"/>
</svg>
